<svg width="1280" height="739" viewBox="0 0 1280 739" fill="none" xmlns="http://www.w3.org/2000/svg">
<rect y="639" width="1280" height="100" fill="#FFFAF2"/>
<rect width="1280" height="280" fill="#82C363"/>
<path d="M0 115H1280V660.57C1280 660.57 1249.65 646.179 1229 642.773C1156.41 630.801 1131.85 732.968 1058.5 730.643C989.367 728.452 969.121 645.39 900 642.773C825.771 639.964 801.254 732.438 727 730.643C656.103 728.929 634.412 642.295 563.5 642.773C493.466 643.246 472.526 729.349 402.5 730.643C330.01 731.982 306.993 641.631 234.5 642.773C164.121 643.883 141.73 744.776 72.5 730.643C41.5769 724.33 0 691.713 0 691.713V115Z" fill="#82C363"/>
<path fill-rule="evenodd" clip-rule="evenodd" d="M501.879 220.928C498.816 211.865 489.096 206.793 479.859 209.56C470.634 212.323 465.305 221.883 467.705 231.126C465.046 230.654 462.239 230.78 459.475 231.607C450.035 234.435 444.674 244.38 447.502 253.82C449.316 259.876 454.058 264.252 459.717 265.866C455.877 270.325 454.322 276.589 456.136 282.644C458.964 292.084 468.909 297.444 478.349 294.617C481.138 293.781 483.571 292.325 485.542 290.443C488.805 299.161 498.318 303.975 507.367 301.264C516.416 298.553 521.717 289.303 519.65 280.226C522.33 280.714 525.163 280.594 527.952 279.758C537.392 276.93 542.753 266.985 539.925 257.545C538.111 251.49 533.369 247.113 527.71 245.499C531.55 241.04 533.105 234.777 531.291 228.722C528.463 219.282 518.518 213.921 509.078 216.749C506.286 217.585 503.851 219.044 501.879 220.928ZM496.511 265.216C501.767 263.641 504.751 258.104 503.177 252.848C501.602 247.593 496.065 244.608 490.81 246.183C485.554 247.757 482.569 253.294 484.144 258.55C485.718 263.806 491.255 266.79 496.511 265.216Z" fill="#DF5F79"/>
<path fill-rule="evenodd" clip-rule="evenodd" d="M437.371 568.367C440.106 556.52 432.977 544.546 421.14 541.374C409.317 538.206 397.173 544.99 393.6 556.59C391.039 554.304 387.919 552.567 384.377 551.617C372.278 548.376 359.843 555.555 356.601 567.654C354.522 575.414 356.73 583.313 361.774 588.835C354.645 591.096 348.783 596.832 346.704 604.593C343.462 616.691 350.641 629.126 362.74 632.368C366.314 633.326 369.918 633.374 373.305 632.654C371.016 644.263 378.094 655.818 389.691 658.925C401.288 662.032 413.195 655.564 417.016 644.367C419.59 646.684 422.735 648.444 426.309 649.402C438.408 652.643 450.843 645.464 454.085 633.365C456.164 625.605 453.956 617.706 448.912 612.184C456.041 609.923 461.903 604.187 463.983 596.426C467.224 584.328 460.045 571.893 447.946 568.651C444.369 567.692 440.761 567.645 437.371 568.367ZM402.007 612.688C408.742 614.493 415.666 610.496 417.471 603.76C419.275 597.024 415.278 590.101 408.542 588.296C401.807 586.491 394.883 590.488 393.078 597.224C391.274 603.96 395.271 610.883 402.007 612.688Z" fill="#429FC1"/>
</svg>
